<?xml version="1.0" encoding="UTF-8"?>
<!DOCTYPE svg PUBLIC "-//W3C//DTD SVG 1.1//EN" "http://www.w3.org/Graphics/SVG/1.1/DTD/svg11.dtd">
<svg xmlns="http://www.w3.org/2000/svg" version="1.1" width="144px" height="144px" style="shape-rendering:geometricPrecision; text-rendering:geometricPrecision; image-rendering:optimizeQuality; fill-rule:evenodd; clip-rule:evenodd" xmlns:xlink="http://www.w3.org/1999/xlink">
<g><path style="opacity:0.98" fill="#fdfdfd" d="M 62.5,0.5 C 105.462,-0.347864 131.962,19.9855 142,61.5C 144.802,91.3901 133.969,114.89 109.5,132C 75.6051,149.883 45.1051,145.383 18,118.5C -4.52695,88.6704 -5.19362,58.3371 16,27.5C 28.3379,12.9188 43.8379,3.9188 62.5,0.5 Z"/></g>
<g><path style="opacity:1" fill="#7d8ec7" d="M 67.5,69.5 C 66.7368,71.3684 65.7368,73.0351 64.5,74.5C 63.8333,74.8333 63.1667,75.1667 62.5,75.5C 62.7683,72.8806 62.435,70.3806 61.5,68C 57.0834,68.0966 52.75,67.9299 48.5,67.5C 47.2011,56.3885 45.7011,45.3885 44,34.5C 51.6963,46.3437 59.5297,58.0104 67.5,69.5 Z"/></g>
<g><path style="opacity:1" fill="#797979" d="M 108.5,65.5 C 108.38,64.4138 107.713,63.7472 106.5,63.5C 105.287,63.7472 104.62,64.4138 104.5,65.5C 103.596,64.791 103.263,63.791 103.5,62.5C 105.5,62.5 107.5,62.5 109.5,62.5C 109.737,63.791 109.404,64.791 108.5,65.5 Z"/></g>
<g><path style="opacity:1" fill="#151515" d="M 14.5,62.5 C 17.1667,62.5 19.8333,62.5 22.5,62.5C 22.5,63.8333 22.5,65.1667 22.5,66.5C 13.9424,65.5276 11.6091,68.6943 15.5,76C 17.5675,76.6869 19.5675,76.5202 21.5,75.5C 22.5896,76.3914 22.5896,77.3914 21.5,78.5C 11.9176,81.7342 7.41759,78.4009 8,68.5C 10.0627,66.2659 12.2294,64.2659 14.5,62.5 Z"/></g>
<g><path style="opacity:1" fill="#131313" d="M 24.5,63.5 C 26.1667,63.5 27.8333,63.5 29.5,63.5C 29.3398,65.1992 29.5065,66.8659 30,68.5C 32.6667,67.1667 35.3333,67.1667 38,68.5C 38.4986,72.1516 38.6653,75.8183 38.5,79.5C 36.8333,79.5 35.1667,79.5 33.5,79.5C 33.5,76.8333 33.5,74.1667 33.5,71.5C 32.1667,71.5 30.8333,71.5 29.5,71.5C 29.5,74.1667 29.5,76.8333 29.5,79.5C 27.8333,79.5 26.1667,79.5 24.5,79.5C 24.5,74.1667 24.5,68.8333 24.5,63.5 Z"/></g>
<g><path style="opacity:1" fill="#000000" d="M 41.5,63.5 C 42.9778,63.238 44.3112,63.5713 45.5,64.5C 44.8333,64.8333 44.1667,65.1667 43.5,65.5C 42.2867,65.2528 41.62,64.5862 41.5,63.5 Z"/></g>
<g><path style="opacity:1" fill="#100b0a" d="M 66.5,79.5 C 65.1266,79.6567 63.7932,79.49 62.5,79C 63.5822,77.6703 64.2488,76.1703 64.5,74.5C 65.7368,73.0351 66.7368,71.3684 67.5,69.5C 68.4408,67.9505 69.1075,66.2838 69.5,64.5C 72.1346,63.2706 74.8013,63.2706 77.5,64.5C 79.376,69.4612 81.0426,74.4612 82.5,79.5C 79.7118,79.9231 77.7118,78.9231 76.5,76.5C 74.2351,75.3526 71.9018,75.1859 69.5,76C 69.0257,77.7286 68.0257,78.8953 66.5,79.5 Z"/></g>
<g><path style="opacity:1" fill="#000000" d="M 108.5,65.5 C 107.167,65.5 105.833,65.5 104.5,65.5C 104.62,64.4138 105.287,63.7472 106.5,63.5C 107.713,63.7472 108.38,64.4138 108.5,65.5 Z"/></g>
<g><path style="opacity:1" fill="#111111" d="M 40.5,67.5 C 42.1667,67.5 43.8333,67.5 45.5,67.5C 45.5,71.5 45.5,75.5 45.5,79.5C 43.8333,79.5 42.1667,79.5 40.5,79.5C 40.5,75.5 40.5,71.5 40.5,67.5 Z"/></g>
<g><path style="opacity:1" fill="#0c0d10" d="M 48.5,67.5 C 52.75,67.9299 57.0834,68.0966 61.5,68C 62.435,70.3806 62.7683,72.8806 62.5,75.5C 62.3404,77.153 61.6737,78.4863 60.5,79.5C 59.5,79.5 58.5,79.5 57.5,79.5C 57.5,76.8333 57.5,74.1667 57.5,71.5C 55.8561,71.2865 54.3561,71.6198 53,72.5C 52.8138,75.0356 52.3138,77.369 51.5,79.5C 50.1667,79.5 48.8333,79.5 47.5,79.5C 47.8333,75.5 48.1667,71.5 48.5,67.5 Z"/></g>
<g><path style="opacity:1" fill="#0e0c0c" d="M 103.5,67.5 C 105.167,67.5 106.833,67.5 108.5,67.5C 108.5,71.5 108.5,75.5 108.5,79.5C 107.5,79.5 106.5,79.5 105.5,79.5C 104.508,79.6716 103.842,79.3382 103.5,78.5C 103.5,76.8333 103.5,75.1667 103.5,73.5C 103.5,71.5 103.5,69.5 103.5,67.5 Z"/></g>
<g><path style="opacity:1" fill="#0e0e0e" d="M 112.5,67.5 C 115.167,67.5 117.833,67.5 120.5,67.5C 120.5,68.5 120.5,69.5 120.5,70.5C 116.092,70.062 114.425,72.062 115.5,76.5C 117.167,76.5 118.833,76.5 120.5,76.5C 120.5,77.5 120.5,78.5 120.5,79.5C 110.443,80.5607 107.776,76.5607 112.5,67.5 Z"/></g>
<g><path style="opacity:1" fill="#121212" d="M 123.5,67.5 C 127.182,67.3347 130.848,67.5014 134.5,68C 135.46,71.73 135.793,75.5633 135.5,79.5C 133.833,79.5 132.167,79.5 130.5,79.5C 130.5,77.8333 130.5,76.1667 130.5,74.5C 126.487,74.5196 125.82,75.853 128.5,78.5C 123.981,80.5875 122.148,79.2542 123,74.5C 125.445,73.0936 127.945,71.7602 130.5,70.5C 128.516,69.2941 126.516,69.2941 124.5,70.5C 123.614,69.675 123.281,68.675 123.5,67.5 Z"/></g>
<g><path style="opacity:1" fill="#db9a99" d="M 72.5,67.5 C 74.1765,68.1834 74.8432,69.5168 74.5,71.5C 73.325,71.719 72.325,71.3857 71.5,70.5C 72.1272,69.5832 72.4606,68.5832 72.5,67.5 Z"/></g>
<g><path style="opacity:1" fill="#7b8cc4" d="M 60.5,79.5 C 58.4271,83.3077 56.0938,86.9744 53.5,90.5C 51.9064,87.0145 51.2397,83.3479 51.5,79.5C 52.3138,77.369 52.8138,75.0356 53,72.5C 54.3561,71.6198 55.8561,71.2865 57.5,71.5C 57.5,74.1667 57.5,76.8333 57.5,79.5C 58.5,79.5 59.5,79.5 60.5,79.5 Z"/></g>
<g><path style="opacity:1" fill="#ea9796" d="M 103.5,67.5 C 103.5,69.5 103.5,71.5 103.5,73.5C 100.152,74.2247 98.1524,76.2247 97.5,79.5C 97.3367,77.1432 97.5034,74.8098 98,72.5C 99.1096,70.9632 100.61,70.2965 102.5,70.5C 102.5,69.5 102.5,68.5 102.5,67.5C 99.5422,68.5411 96.5422,68.5411 93.5,67.5C 93.5,71.5 93.5,75.5 93.5,79.5C 76.849,91.9701 60.0156,104.303 43,116.5C 50.2732,103.988 58.1065,91.6543 66.5,79.5C 68.0257,78.8953 69.0257,77.7286 69.5,76C 71.9018,75.1859 74.2351,75.3526 76.5,76.5C 77.7118,78.9231 79.7118,79.9231 82.5,79.5C 81.0426,74.4612 79.376,69.4612 77.5,64.5C 74.8013,63.2706 72.1346,63.2706 69.5,64.5C 59.3876,50.8206 50.3876,36.8206 42.5,22.5C 63.079,37.277 83.4123,52.277 103.5,67.5 Z"/></g>
<g><path style="opacity:1" fill="#050303" d="M 97.5,79.5 C 96.1667,79.5 94.8333,79.5 93.5,79.5C 93.5,75.5 93.5,71.5 93.5,67.5C 96.5422,68.5411 99.5422,68.5411 102.5,67.5C 102.5,68.5 102.5,69.5 102.5,70.5C 100.61,70.2965 99.1096,70.9632 98,72.5C 97.5034,74.8098 97.3367,77.1432 97.5,79.5 Z"/></g>
<g><path style="opacity:1" fill="#110a0a" d="M 86.5,62.5 C 88.5,62.5 90.5,62.5 92.5,62.5C 92.5,63.5 92.5,64.5 92.5,65.5C 88.5,66.1667 88.5,66.8333 92.5,67.5C 92.5,68.5 92.5,69.5 92.5,70.5C 91.5,70.5 90.5,70.5 89.5,70.5C 89.5,73.5 89.5,76.5 89.5,79.5C 87.8333,79.5 86.1667,79.5 84.5,79.5C 83.1573,73.4214 83.824,67.7548 86.5,62.5 Z"/></g>
<g><path style="opacity:1" fill="#7bb69e" d="M 103.5,78.5 C 103.842,79.3382 104.508,79.6716 105.5,79.5C 105.495,83.0332 104.495,86.1998 102.5,89C 89.0103,95.5779 75.6769,102.411 62.5,109.5C 61.3044,109.154 61.3044,108.654 62.5,108C 76.3244,98.3356 89.9911,88.5022 103.5,78.5 Z"/></g>
</svg>
